<?xml version="1.0" standalone="no"?><!DOCTYPE svg PUBLIC "-//W3C//DTD SVG 1.1//EN" "http://www.w3.org/Graphics/SVG/1.1/DTD/svg11.dtd"><svg class="icon" width="200px" height="200.00px" viewBox="0 0 1024 1024" version="1.1" xmlns="http://www.w3.org/2000/svg"><path fill="#333333" d="M612.757798 451.999464c-7.694239-6.620791-19.250436-5.727445-25.838482 1.932002l-68.6311 79.904865-19.411095 0-69.941955-81.408101c-6.582929-7.694239-18.175965-8.587586-25.834388-1.966795-7.694239 6.583952-8.550747 18.176988-1.966795 25.835412l49.41648 57.539484-55.17667 0c-8.677637 0-15.711843 8.195659-15.711843 18.321274 0 10.130731 7.03523 18.322297 15.711843 18.322297l96.506984 0 0 68.025303-96.510054 0c-8.674567 0-15.709797 8.195659-15.709797 18.322297 0 10.125615 7.03523 18.322297 15.709797 18.322297l96.510054 0 0 105.779162c0 8.661264 8.195659 15.709797 18.318204 15.709797 10.129708 0 18.321274-7.048533 18.321274-15.709797L528.520255 675.1498l96.510054 0c8.67866 0 15.709797-8.196683 15.709797-18.322297 0-10.126638-7.031137-18.322297-15.709797-18.322297l-96.505961 0 0-68.025303 96.505961 0c8.67866 0 15.712867-8.195659 15.712867-18.322297 0-10.126638-7.03523-18.321274-15.712867-18.321274l-58.450227 0 48.128137-56.001455C621.291149 470.140637 620.417245 458.58444 612.757798 451.999464L612.757798 451.999464zM612.757798 451.999464M390.842593 230.716662c-24.816199-22.112624-67.674309-80.184227-92.726891-113.832582 28.531823 7.646144 104.855116 17.36346 142.113695 17.36346 28.768207 0 67.26294-3.847631 92.293009-11.491729 93.928253-28.553313 187.119725-33.013905 238.630912-21.395286-30.366611 38.012755-100.67798 98.730629-139.900284 129.356137l50.39783 0c43.366693-36.629245 93.77885-84.061534 111.747083-119.953999l10.559497-21.122063-21.423939-9.892301c-24.597211-11.404748-52.067866-16.934694-83.990926-16.934694-52.831252 0-114.384144 15.422248-190.541661 38.573527-20.732184 6.308683-43.516096 9.503445-67.771523 9.503445-79.657224 0-182.851515-24.233937-182.851515-24.233937s25.096585 68.511373 93.217055 144.060023L390.842593 230.716662 390.842593 230.716662zM390.842593 230.716662M681.778778 302.595736l-45.789882 0c8.079002 6.046716 18.273179 13.176091 31.321356 22.200628 87.470167 60.60838 239.038188 184.565553 230.28892 353.721137-11.400654 220.172515-238.455927 257.907954-391.365502 258.687714l-6.1777 0c-138.188292 0-244.13323-29.502941-300.846906-87.99103-42.376133-43.668569-73.894987-126.752846-71.520917-204.849528 5.529947-183.022407 173.751253-288.639886 250.337535-333.732897 5.100158-3.02387 9.503445-5.616928 13.564947-8.036024l-54.600549 0c-93.261057 59.911508-227.426733 167.94706-232.653781 340.388481-2.764973 90.970898 21.897729 163.884534 73.238025 216.798674 65.764819 67.819618 171.250292 100.776218 322.481645 100.776218l6.392594 0c98.8084-0.51677 399.479297-2.073218 414.424684-290.882973C930.180218 489.983567 774.995833 368.256178 681.778778 302.595736L681.778778 302.595736zM681.778778 302.595736" /></svg>